<svg width="1440" height="417" viewBox="0 0 1440 417" fill="none" xmlns="http://www.w3.org/2000/svg">
<path d="M1438.52 472.247L1438.25 472.5H-1.47015L-1.50375 472.488C-1.5795 472.461 -1.69287 472.421 -1.84293 472.368C-2.14307 472.261 -2.59003 472.101 -3.17657 471.889C-4.34967 471.466 -6.08115 470.834 -8.31323 470.001C-12.7774 468.336 -19.2438 465.869 -27.2505 462.662C-43.2641 456.247 -65.4372 446.872 -90.0733 435.029C-139.358 411.337 -198.451 377.796 -237.827 338.363C-257.513 318.647 -272.238 297.491 -278.369 275.39C-284.493 253.31 -282.05 230.251 -267.334 206.671C-252.607 183.073 -225.573 158.933 -182.477 134.764C-139.385 110.597 -80.266 86.4184 -1.41171 62.7274C313.977 -32.028 530.134 -0.446785 739.352 39.0424C753.554 41.723 767.724 44.4401 781.891 47.1567C976.452 84.4631 1170.46 121.663 1438.55 62.7369C1510.41 46.9433 1564.26 41.5232 1603.5 44.1107C1642.75 46.6988 1667.29 57.2915 1680.64 73.4286C1693.98 89.5535 1696.24 111.34 1690.64 136.564C1685.04 161.789 1671.6 190.369 1653.64 219.971C1617.73 279.169 1563.85 342.332 1518.94 390.707C1496.48 414.892 1476.27 435.375 1461.68 449.811C1454.38 457.03 1448.48 462.736 1444.42 466.638C1442.38 468.589 1440.8 470.088 1439.73 471.1C1439.2 471.606 1438.79 471.99 1438.52 472.247Z" fill="url(#paint0_linear)" stroke="url(#paint1_linear)"/>
<defs>
<linearGradient id="paint0_linear" x1="706" y1="0" x2="706" y2="473" gradientUnits="userSpaceOnUse">
<stop stop-color="#92CB45"/>
<stop offset="1" stop-color="#51B173"/>
</linearGradient>
<linearGradient id="paint1_linear" x1="706" y1="0" x2="706" y2="473" gradientUnits="userSpaceOnUse">
<stop stop-color="#FAFEF8" stop-opacity="0"/>
<stop offset="1" stop-color="#FFFEFE"/>
</linearGradient>
</defs>
</svg>
