<?xml version="1.0" standalone="no"?><svg xmlns="http://www.w3.org/2000/svg" viewBox="0 0 1440 320"><path fill="#5fb839d0" fill-opacity="1" d="M0,160L40,176C80,192,160,224,240,234.7C320,245,400,235,480,213.3C560,192,640,160,720,170.7C800,181,880,235,960,256C1040,277,1120,267,1200,229.3C1280,192,1360,128,1400,96L1440,64L1440,320L1400,320C1360,320,1280,320,1200,320C1120,320,1040,320,960,320C880,320,800,320,720,320C640,320,560,320,480,320C400,320,320,320,240,320C160,320,80,320,40,320L0,320Z"></path></svg>