<?xml version="1.0" standalone="no"?><svg xmlns="http://www.w3.org/2000/svg" viewBox="0 0 1440 320"><path fill="#5fb839d0" fill-opacity="1" d="M0,0L40,21.3C80,43,160,85,240,122.7C320,160,400,192,480,218.7C560,245,640,267,720,256C800,245,880,203,960,165.3C1040,128,1120,96,1200,117.3C1280,139,1360,213,1400,250.7L1440,288L1440,320L1400,320C1360,320,1280,320,1200,320C1120,320,1040,320,960,320C880,320,800,320,720,320C640,320,560,320,480,320C400,320,320,320,240,320C160,320,80,320,40,320L0,320Z"></path></svg>